<mxfile host="app.diagrams.net" modified="2021-05-06T07:23:16.208Z" agent="5.0 (Windows NT 10.0; Win64; x64) AppleWebKit/537.36 (KHTML, like Gecko) Chrome/90.0.4430.93 Safari/537.36" etag="OYqX-kOx-IIrRaV8biOE" version="14.6.6" type="github">
  <diagram id="wFE0QG_FPsp0jaGvCLVb" name="법규이력관리 프로세스">
    <mxGraphModel dx="1184" dy="815" grid="1" gridSize="10" guides="1" tooltips="1" connect="1" arrows="1" fold="1" page="1" pageScale="1" pageWidth="850" pageHeight="1100" math="0" shadow="0">
      <root>
        <mxCell id="0" />
        <mxCell id="1" parent="0" />
        <mxCell id="RIR9V87sjyLqFLFkNyvp-130" value="" style="rounded=0;whiteSpace=wrap;html=1;fontColor=#333333;fillColor=#f5f5f5;align=left;strokeColor=#666666;" vertex="1" parent="1">
          <mxGeometry x="170" y="790" width="450" height="260" as="geometry" />
        </mxCell>
        <mxCell id="RIR9V87sjyLqFLFkNyvp-14" value="" style="shape=partialRectangle;collapsible=0;dropTarget=0;pointerEvents=0;fillColor=none;top=0;left=0;bottom=0;right=0;points=[[0,0.5],[1,0.5]];portConstraint=eastwest;" vertex="1" parent="1">
          <mxGeometry x="170" y="630" width="110" height="30" as="geometry" />
        </mxCell>
        <mxCell id="RIR9V87sjyLqFLFkNyvp-15" value="" style="shape=partialRectangle;connectable=0;fillColor=none;top=0;left=0;bottom=0;right=0;editable=1;overflow=hidden;" vertex="1" parent="RIR9V87sjyLqFLFkNyvp-14">
          <mxGeometry width="18.333333333333332" height="30" as="geometry" />
        </mxCell>
        <mxCell id="RIR9V87sjyLqFLFkNyvp-16" value="기준일자" style="shape=partialRectangle;connectable=0;fillColor=none;top=0;left=0;bottom=0;right=0;align=left;spacingLeft=6;overflow=hidden;" vertex="1" parent="RIR9V87sjyLqFLFkNyvp-14">
          <mxGeometry width="110" height="30" as="geometry" />
        </mxCell>
        <mxCell id="RIR9V87sjyLqFLFkNyvp-1" value="법규" style="shape=table;startSize=30;container=1;collapsible=1;childLayout=tableLayout;fixedRows=1;rowLines=0;fontStyle=1;align=center;resizeLast=1;fillColor=#dae8fc;strokeColor=#6c8ebf;" vertex="1" parent="1">
          <mxGeometry x="140" y="480" width="170" height="210" as="geometry" />
        </mxCell>
        <mxCell id="RIR9V87sjyLqFLFkNyvp-2" value="" style="shape=partialRectangle;collapsible=0;dropTarget=0;pointerEvents=0;fillColor=none;top=0;left=0;bottom=1;right=0;points=[[0,0.5],[1,0.5]];portConstraint=eastwest;" vertex="1" parent="RIR9V87sjyLqFLFkNyvp-1">
          <mxGeometry y="30" width="170" height="30" as="geometry" />
        </mxCell>
        <mxCell id="RIR9V87sjyLqFLFkNyvp-3" value="PK" style="shape=partialRectangle;connectable=0;fillColor=none;top=0;left=0;bottom=0;right=0;fontStyle=1;overflow=hidden;" vertex="1" parent="RIR9V87sjyLqFLFkNyvp-2">
          <mxGeometry width="30" height="30" as="geometry" />
        </mxCell>
        <mxCell id="RIR9V87sjyLqFLFkNyvp-4" value="조문관리번호" style="shape=partialRectangle;connectable=0;fillColor=none;top=0;left=0;bottom=0;right=0;align=left;spacingLeft=6;fontStyle=5;overflow=hidden;" vertex="1" parent="RIR9V87sjyLqFLFkNyvp-2">
          <mxGeometry x="30" width="140" height="30" as="geometry" />
        </mxCell>
        <mxCell id="RIR9V87sjyLqFLFkNyvp-5" value="" style="shape=partialRectangle;collapsible=0;dropTarget=0;pointerEvents=0;fillColor=none;top=0;left=0;bottom=0;right=0;points=[[0,0.5],[1,0.5]];portConstraint=eastwest;" vertex="1" parent="RIR9V87sjyLqFLFkNyvp-1">
          <mxGeometry y="60" width="170" height="30" as="geometry" />
        </mxCell>
        <mxCell id="RIR9V87sjyLqFLFkNyvp-6" value="" style="shape=partialRectangle;connectable=0;fillColor=none;top=0;left=0;bottom=0;right=0;editable=1;overflow=hidden;" vertex="1" parent="RIR9V87sjyLqFLFkNyvp-5">
          <mxGeometry width="30" height="30" as="geometry" />
        </mxCell>
        <mxCell id="RIR9V87sjyLqFLFkNyvp-7" value="조문코드" style="shape=partialRectangle;connectable=0;fillColor=none;top=0;left=0;bottom=0;right=0;align=left;spacingLeft=6;overflow=hidden;" vertex="1" parent="RIR9V87sjyLqFLFkNyvp-5">
          <mxGeometry x="30" width="140" height="30" as="geometry" />
        </mxCell>
        <mxCell id="RIR9V87sjyLqFLFkNyvp-8" value="" style="shape=partialRectangle;collapsible=0;dropTarget=0;pointerEvents=0;fillColor=none;top=0;left=0;bottom=0;right=0;points=[[0,0.5],[1,0.5]];portConstraint=eastwest;" vertex="1" parent="RIR9V87sjyLqFLFkNyvp-1">
          <mxGeometry y="90" width="170" height="30" as="geometry" />
        </mxCell>
        <mxCell id="RIR9V87sjyLqFLFkNyvp-9" value="" style="shape=partialRectangle;connectable=0;fillColor=none;top=0;left=0;bottom=0;right=0;editable=1;overflow=hidden;" vertex="1" parent="RIR9V87sjyLqFLFkNyvp-8">
          <mxGeometry width="30" height="30" as="geometry" />
        </mxCell>
        <mxCell id="RIR9V87sjyLqFLFkNyvp-10" value="조문명" style="shape=partialRectangle;connectable=0;fillColor=none;top=0;left=0;bottom=0;right=0;align=left;spacingLeft=6;overflow=hidden;" vertex="1" parent="RIR9V87sjyLqFLFkNyvp-8">
          <mxGeometry x="30" width="140" height="30" as="geometry" />
        </mxCell>
        <mxCell id="RIR9V87sjyLqFLFkNyvp-11" value="" style="shape=partialRectangle;collapsible=0;dropTarget=0;pointerEvents=0;fillColor=none;top=0;left=0;bottom=0;right=0;points=[[0,0.5],[1,0.5]];portConstraint=eastwest;" vertex="1" parent="RIR9V87sjyLqFLFkNyvp-1">
          <mxGeometry y="120" width="170" height="30" as="geometry" />
        </mxCell>
        <mxCell id="RIR9V87sjyLqFLFkNyvp-12" value="" style="shape=partialRectangle;connectable=0;fillColor=none;top=0;left=0;bottom=0;right=0;editable=1;overflow=hidden;" vertex="1" parent="RIR9V87sjyLqFLFkNyvp-11">
          <mxGeometry width="30" height="30" as="geometry" />
        </mxCell>
        <mxCell id="RIR9V87sjyLqFLFkNyvp-13" value="조문내용" style="shape=partialRectangle;connectable=0;fillColor=none;top=0;left=0;bottom=0;right=0;align=left;spacingLeft=6;overflow=hidden;" vertex="1" parent="RIR9V87sjyLqFLFkNyvp-11">
          <mxGeometry x="30" width="140" height="30" as="geometry" />
        </mxCell>
        <mxCell id="RIR9V87sjyLqFLFkNyvp-17" value="법규이력" style="shape=table;startSize=30;container=1;collapsible=1;childLayout=tableLayout;fixedRows=1;rowLines=0;fontStyle=1;align=center;resizeLast=1;fillColor=#dae8fc;strokeColor=#6c8ebf;" vertex="1" parent="1">
          <mxGeometry x="530" y="480" width="140" height="180" as="geometry" />
        </mxCell>
        <mxCell id="RIR9V87sjyLqFLFkNyvp-18" value="" style="shape=partialRectangle;collapsible=0;dropTarget=0;pointerEvents=0;fillColor=none;top=0;left=0;bottom=1;right=0;points=[[0,0.5],[1,0.5]];portConstraint=eastwest;" vertex="1" parent="RIR9V87sjyLqFLFkNyvp-17">
          <mxGeometry y="30" width="140" height="30" as="geometry" />
        </mxCell>
        <mxCell id="RIR9V87sjyLqFLFkNyvp-19" value="PK" style="shape=partialRectangle;connectable=0;fillColor=none;top=0;left=0;bottom=0;right=0;fontStyle=1;overflow=hidden;" vertex="1" parent="RIR9V87sjyLqFLFkNyvp-18">
          <mxGeometry width="30" height="30" as="geometry" />
        </mxCell>
        <mxCell id="RIR9V87sjyLqFLFkNyvp-20" value="조문관리번호" style="shape=partialRectangle;connectable=0;fillColor=none;top=0;left=0;bottom=0;right=0;align=left;spacingLeft=6;fontStyle=5;overflow=hidden;" vertex="1" parent="RIR9V87sjyLqFLFkNyvp-18">
          <mxGeometry x="30" width="110" height="30" as="geometry" />
        </mxCell>
        <mxCell id="RIR9V87sjyLqFLFkNyvp-21" value="" style="shape=partialRectangle;collapsible=0;dropTarget=0;pointerEvents=0;fillColor=none;top=0;left=0;bottom=0;right=0;points=[[0,0.5],[1,0.5]];portConstraint=eastwest;" vertex="1" parent="RIR9V87sjyLqFLFkNyvp-17">
          <mxGeometry y="60" width="140" height="30" as="geometry" />
        </mxCell>
        <mxCell id="RIR9V87sjyLqFLFkNyvp-22" value="" style="shape=partialRectangle;connectable=0;fillColor=none;top=0;left=0;bottom=0;right=0;editable=1;overflow=hidden;" vertex="1" parent="RIR9V87sjyLqFLFkNyvp-21">
          <mxGeometry width="30" height="30" as="geometry" />
        </mxCell>
        <mxCell id="RIR9V87sjyLqFLFkNyvp-23" value="조문코드" style="shape=partialRectangle;connectable=0;fillColor=none;top=0;left=0;bottom=0;right=0;align=left;spacingLeft=6;overflow=hidden;" vertex="1" parent="RIR9V87sjyLqFLFkNyvp-21">
          <mxGeometry x="30" width="110" height="30" as="geometry" />
        </mxCell>
        <mxCell id="RIR9V87sjyLqFLFkNyvp-24" value="" style="shape=partialRectangle;collapsible=0;dropTarget=0;pointerEvents=0;fillColor=none;top=0;left=0;bottom=0;right=0;points=[[0,0.5],[1,0.5]];portConstraint=eastwest;" vertex="1" parent="RIR9V87sjyLqFLFkNyvp-17">
          <mxGeometry y="90" width="140" height="30" as="geometry" />
        </mxCell>
        <mxCell id="RIR9V87sjyLqFLFkNyvp-25" value="" style="shape=partialRectangle;connectable=0;fillColor=none;top=0;left=0;bottom=0;right=0;editable=1;overflow=hidden;" vertex="1" parent="RIR9V87sjyLqFLFkNyvp-24">
          <mxGeometry width="30" height="30" as="geometry" />
        </mxCell>
        <mxCell id="RIR9V87sjyLqFLFkNyvp-26" value="조문명" style="shape=partialRectangle;connectable=0;fillColor=none;top=0;left=0;bottom=0;right=0;align=left;spacingLeft=6;overflow=hidden;" vertex="1" parent="RIR9V87sjyLqFLFkNyvp-24">
          <mxGeometry x="30" width="110" height="30" as="geometry" />
        </mxCell>
        <mxCell id="RIR9V87sjyLqFLFkNyvp-27" value="" style="shape=partialRectangle;collapsible=0;dropTarget=0;pointerEvents=0;fillColor=none;top=0;left=0;bottom=0;right=0;points=[[0,0.5],[1,0.5]];portConstraint=eastwest;" vertex="1" parent="RIR9V87sjyLqFLFkNyvp-17">
          <mxGeometry y="120" width="140" height="30" as="geometry" />
        </mxCell>
        <mxCell id="RIR9V87sjyLqFLFkNyvp-28" value="" style="shape=partialRectangle;connectable=0;fillColor=none;top=0;left=0;bottom=0;right=0;editable=1;overflow=hidden;" vertex="1" parent="RIR9V87sjyLqFLFkNyvp-27">
          <mxGeometry width="30" height="30" as="geometry" />
        </mxCell>
        <mxCell id="RIR9V87sjyLqFLFkNyvp-29" value="조문내용" style="shape=partialRectangle;connectable=0;fillColor=none;top=0;left=0;bottom=0;right=0;align=left;spacingLeft=6;overflow=hidden;" vertex="1" parent="RIR9V87sjyLqFLFkNyvp-27">
          <mxGeometry x="30" width="110" height="30" as="geometry" />
        </mxCell>
        <mxCell id="RIR9V87sjyLqFLFkNyvp-33" value="현행법 본문 API" style="ellipse;shape=cloud;whiteSpace=wrap;html=1;fillColor=#dae8fc;strokeColor=#6c8ebf;" vertex="1" parent="1">
          <mxGeometry x="120" y="320" width="140" height="80" as="geometry" />
        </mxCell>
        <mxCell id="RIR9V87sjyLqFLFkNyvp-34" value="신구법 본문 API" style="ellipse;shape=cloud;whiteSpace=wrap;html=1;fillColor=#dae8fc;strokeColor=#6c8ebf;" vertex="1" parent="1">
          <mxGeometry x="515" y="320" width="145" height="80" as="geometry" />
        </mxCell>
        <mxCell id="RIR9V87sjyLqFLFkNyvp-35" value="" style="endArrow=classic;html=1;entryX=0.353;entryY=-0.012;entryDx=0;entryDy=0;entryPerimeter=0;startArrow=none;" edge="1" parent="1" target="RIR9V87sjyLqFLFkNyvp-1">
          <mxGeometry width="50" height="50" relative="1" as="geometry">
            <mxPoint x="200" y="441" as="sourcePoint" />
            <mxPoint x="520" y="530" as="targetPoint" />
          </mxGeometry>
        </mxCell>
        <mxCell id="RIR9V87sjyLqFLFkNyvp-38" value="" style="endArrow=classic;html=1;exitX=0.875;exitY=0.5;exitDx=0;exitDy=0;exitPerimeter=0;entryX=0.114;entryY=0.5;entryDx=0;entryDy=0;entryPerimeter=0;startArrow=none;" edge="1" parent="1" source="RIR9V87sjyLqFLFkNyvp-39" target="RIR9V87sjyLqFLFkNyvp-34">
          <mxGeometry width="50" height="50" relative="1" as="geometry">
            <mxPoint x="440" y="580" as="sourcePoint" />
            <mxPoint x="560" y="352" as="targetPoint" />
          </mxGeometry>
        </mxCell>
        <mxCell id="RIR9V87sjyLqFLFkNyvp-40" value="" style="shape=partialRectangle;collapsible=0;dropTarget=0;pointerEvents=0;fillColor=none;top=0;left=0;bottom=0;right=0;points=[[0,0.5],[1,0.5]];portConstraint=eastwest;" vertex="1" parent="1">
          <mxGeometry x="440" y="360" width="180" height="30" as="geometry" />
        </mxCell>
        <mxCell id="RIR9V87sjyLqFLFkNyvp-41" value="" style="shape=partialRectangle;connectable=0;fillColor=none;top=0;left=0;bottom=0;right=0;editable=1;overflow=hidden;" vertex="1" parent="RIR9V87sjyLqFLFkNyvp-40">
          <mxGeometry x="110" y="255" width="30" height="30" as="geometry" />
        </mxCell>
        <mxCell id="RIR9V87sjyLqFLFkNyvp-42" value="기준일자" style="shape=partialRectangle;connectable=0;fillColor=none;top=0;left=0;bottom=0;right=0;align=left;spacingLeft=6;overflow=hidden;" vertex="1" parent="RIR9V87sjyLqFLFkNyvp-40">
          <mxGeometry x="30" width="150" height="30" as="geometry" />
        </mxCell>
        <mxCell id="RIR9V87sjyLqFLFkNyvp-43" value="" style="endArrow=classic;html=1;entryX=1.007;entryY=0.067;entryDx=0;entryDy=0;entryPerimeter=0;exitX=0.246;exitY=1.042;exitDx=0;exitDy=0;exitPerimeter=0;startArrow=none;" edge="1" parent="1" source="RIR9V87sjyLqFLFkNyvp-44" target="RIR9V87sjyLqFLFkNyvp-1">
          <mxGeometry width="50" height="50" relative="1" as="geometry">
            <mxPoint x="520" y="400" as="sourcePoint" />
            <mxPoint x="490" y="520" as="targetPoint" />
          </mxGeometry>
        </mxCell>
        <mxCell id="RIR9V87sjyLqFLFkNyvp-48" value="" style="endArrow=classic;html=1;startArrow=none;exitX=1.026;exitY=0.5;exitDx=0;exitDy=0;exitPerimeter=0;" edge="1" parent="1" source="RIR9V87sjyLqFLFkNyvp-47" target="RIR9V87sjyLqFLFkNyvp-18">
          <mxGeometry width="50" height="50" relative="1" as="geometry">
            <mxPoint x="282" y="480" as="sourcePoint" />
            <mxPoint x="532" y="489" as="targetPoint" />
          </mxGeometry>
        </mxCell>
        <mxCell id="RIR9V87sjyLqFLFkNyvp-47" value="&lt;font style=&quot;font-size: 16px&quot; color=&quot;#3333ff&quot;&gt;&lt;b&gt;3. Insert Pre&lt;/b&gt;&lt;/font&gt;" style="text;html=1;align=center;verticalAlign=middle;resizable=0;points=[];autosize=1;strokeColor=none;" vertex="1" parent="1">
          <mxGeometry x="375" y="515" width="110" height="20" as="geometry" />
        </mxCell>
        <mxCell id="RIR9V87sjyLqFLFkNyvp-49" value="" style="endArrow=none;html=1;exitX=1;exitY=0.5;exitDx=0;exitDy=0;entryX=-0.009;entryY=0.542;entryDx=0;entryDy=0;entryPerimeter=0;" edge="1" parent="1" source="RIR9V87sjyLqFLFkNyvp-2" target="RIR9V87sjyLqFLFkNyvp-47">
          <mxGeometry width="50" height="50" relative="1" as="geometry">
            <mxPoint x="282" y="480" as="sourcePoint" />
            <mxPoint x="485" y="479" as="targetPoint" />
          </mxGeometry>
        </mxCell>
        <mxCell id="RIR9V87sjyLqFLFkNyvp-44" value="&lt;b style=&quot;color: rgb(51 , 51 , 255) ; font-size: 16px&quot;&gt;1. Insert Post&lt;/b&gt;&lt;span style=&quot;font-size: 16px&quot;&gt;&lt;b&gt;&lt;font color=&quot;#ff3333&quot;&gt;&lt;br&gt;&amp;nbsp;2. Delete Pre&lt;/font&gt;&lt;/b&gt;&lt;/span&gt;&lt;span style=&quot;font-size: 16px&quot;&gt;&lt;b&gt;&lt;font color=&quot;#ff3333&quot;&gt;&amp;nbsp;&lt;/font&gt;&lt;/b&gt;&lt;/span&gt;" style="text;html=1;align=center;verticalAlign=middle;resizable=0;points=[];autosize=1;strokeColor=none;" vertex="1" parent="1">
          <mxGeometry x="370" y="420" width="120" height="40" as="geometry" />
        </mxCell>
        <mxCell id="RIR9V87sjyLqFLFkNyvp-50" value="" style="endArrow=none;html=1;entryX=1.038;entryY=0.313;entryDx=0;entryDy=0;entryPerimeter=0;exitX=0.485;exitY=0.969;exitDx=0;exitDy=0;exitPerimeter=0;" edge="1" parent="1" source="RIR9V87sjyLqFLFkNyvp-34" target="RIR9V87sjyLqFLFkNyvp-44">
          <mxGeometry width="50" height="50" relative="1" as="geometry">
            <mxPoint x="520.06" y="390" as="sourcePoint" />
            <mxPoint x="280.98" y="472.05999999999995" as="targetPoint" />
          </mxGeometry>
        </mxCell>
        <mxCell id="RIR9V87sjyLqFLFkNyvp-39" value="&lt;font color=&quot;#009900&quot;&gt;&lt;span style=&quot;font-size: 16px&quot;&gt;&lt;b&gt;&amp;nbsp;Revise&amp;nbsp;&lt;/b&gt;&lt;/span&gt;&lt;/font&gt;" style="text;html=1;align=center;verticalAlign=middle;resizable=0;points=[];autosize=1;strokeColor=none;" vertex="1" parent="1">
          <mxGeometry x="330" y="350" width="80" height="20" as="geometry" />
        </mxCell>
        <mxCell id="RIR9V87sjyLqFLFkNyvp-51" value="" style="endArrow=none;html=1;exitX=0.875;exitY=0.5;exitDx=0;exitDy=0;exitPerimeter=0;entryX=0.114;entryY=0.5;entryDx=0;entryDy=0;entryPerimeter=0;" edge="1" parent="1" source="RIR9V87sjyLqFLFkNyvp-33" target="RIR9V87sjyLqFLFkNyvp-39">
          <mxGeometry width="50" height="50" relative="1" as="geometry">
            <mxPoint x="247.5" y="360" as="sourcePoint" />
            <mxPoint x="475.96000000000004" y="360" as="targetPoint" />
          </mxGeometry>
        </mxCell>
        <mxCell id="RIR9V87sjyLqFLFkNyvp-37" value="&lt;font style=&quot;font-size: 16px&quot; color=&quot;#3333ff&quot;&gt;&lt;b&gt;Insert&lt;/b&gt;&lt;/font&gt;" style="text;html=1;align=center;verticalAlign=middle;resizable=0;points=[];autosize=1;strokeColor=none;" vertex="1" parent="1">
          <mxGeometry x="170" y="420" width="60" height="20" as="geometry" />
        </mxCell>
        <mxCell id="RIR9V87sjyLqFLFkNyvp-52" value="" style="endArrow=none;html=1;entryX=0.443;entryY=0.006;entryDx=0;entryDy=0;entryPerimeter=0;exitX=0.55;exitY=0.95;exitDx=0;exitDy=0;exitPerimeter=0;" edge="1" parent="1" source="RIR9V87sjyLqFLFkNyvp-33" target="RIR9V87sjyLqFLFkNyvp-37">
          <mxGeometry width="50" height="50" relative="1" as="geometry">
            <mxPoint x="202" y="396" as="sourcePoint" />
            <mxPoint x="202.01999999999998" y="461.08000000000004" as="targetPoint" />
          </mxGeometry>
        </mxCell>
        <mxCell id="RIR9V87sjyLqFLFkNyvp-79" value="북마크" style="shape=table;startSize=30;container=1;collapsible=1;childLayout=tableLayout;fixedRows=1;rowLines=0;fontStyle=1;align=center;resizeLast=1;fillColor=#fff2cc;strokeColor=#d6b656;" vertex="1" parent="1">
          <mxGeometry x="186" y="810" width="140" height="180" as="geometry" />
        </mxCell>
        <mxCell id="RIR9V87sjyLqFLFkNyvp-80" value="" style="shape=partialRectangle;collapsible=0;dropTarget=0;pointerEvents=0;fillColor=none;top=0;left=0;bottom=1;right=0;points=[[0,0.5],[1,0.5]];portConstraint=eastwest;" vertex="1" parent="RIR9V87sjyLqFLFkNyvp-79">
          <mxGeometry y="30" width="140" height="30" as="geometry" />
        </mxCell>
        <mxCell id="RIR9V87sjyLqFLFkNyvp-81" value="PK" style="shape=partialRectangle;connectable=0;fillColor=none;top=0;left=0;bottom=0;right=0;fontStyle=1;overflow=hidden;" vertex="1" parent="RIR9V87sjyLqFLFkNyvp-80">
          <mxGeometry width="30" height="30" as="geometry" />
        </mxCell>
        <mxCell id="RIR9V87sjyLqFLFkNyvp-82" value="북마크번호" style="shape=partialRectangle;connectable=0;fillColor=none;top=0;left=0;bottom=0;right=0;align=left;spacingLeft=6;fontStyle=5;overflow=hidden;" vertex="1" parent="RIR9V87sjyLqFLFkNyvp-80">
          <mxGeometry x="30" width="110" height="30" as="geometry" />
        </mxCell>
        <mxCell id="RIR9V87sjyLqFLFkNyvp-83" value="" style="shape=partialRectangle;collapsible=0;dropTarget=0;pointerEvents=0;fillColor=none;top=0;left=0;bottom=0;right=0;points=[[0,0.5],[1,0.5]];portConstraint=eastwest;" vertex="1" parent="RIR9V87sjyLqFLFkNyvp-79">
          <mxGeometry y="60" width="140" height="30" as="geometry" />
        </mxCell>
        <mxCell id="RIR9V87sjyLqFLFkNyvp-84" value="" style="shape=partialRectangle;connectable=0;fillColor=none;top=0;left=0;bottom=0;right=0;editable=1;overflow=hidden;" vertex="1" parent="RIR9V87sjyLqFLFkNyvp-83">
          <mxGeometry width="30" height="30" as="geometry" />
        </mxCell>
        <mxCell id="RIR9V87sjyLqFLFkNyvp-85" value="조문관리번호" style="shape=partialRectangle;connectable=0;fillColor=none;top=0;left=0;bottom=0;right=0;align=left;spacingLeft=6;overflow=hidden;fontStyle=1" vertex="1" parent="RIR9V87sjyLqFLFkNyvp-83">
          <mxGeometry x="30" width="110" height="30" as="geometry" />
        </mxCell>
        <mxCell id="RIR9V87sjyLqFLFkNyvp-86" value="" style="shape=partialRectangle;collapsible=0;dropTarget=0;pointerEvents=0;fillColor=none;top=0;left=0;bottom=0;right=0;points=[[0,0.5],[1,0.5]];portConstraint=eastwest;" vertex="1" parent="RIR9V87sjyLqFLFkNyvp-79">
          <mxGeometry y="90" width="140" height="30" as="geometry" />
        </mxCell>
        <mxCell id="RIR9V87sjyLqFLFkNyvp-87" value="" style="shape=partialRectangle;connectable=0;fillColor=none;top=0;left=0;bottom=0;right=0;editable=1;overflow=hidden;" vertex="1" parent="RIR9V87sjyLqFLFkNyvp-86">
          <mxGeometry width="30" height="30" as="geometry" />
        </mxCell>
        <mxCell id="RIR9V87sjyLqFLFkNyvp-88" value="사용자ID" style="shape=partialRectangle;connectable=0;fillColor=none;top=0;left=0;bottom=0;right=0;align=left;spacingLeft=6;overflow=hidden;" vertex="1" parent="RIR9V87sjyLqFLFkNyvp-86">
          <mxGeometry x="30" width="110" height="30" as="geometry" />
        </mxCell>
        <mxCell id="RIR9V87sjyLqFLFkNyvp-89" value="" style="shape=partialRectangle;collapsible=0;dropTarget=0;pointerEvents=0;fillColor=none;top=0;left=0;bottom=0;right=0;points=[[0,0.5],[1,0.5]];portConstraint=eastwest;" vertex="1" parent="RIR9V87sjyLqFLFkNyvp-79">
          <mxGeometry y="120" width="140" height="30" as="geometry" />
        </mxCell>
        <mxCell id="RIR9V87sjyLqFLFkNyvp-90" value="" style="shape=partialRectangle;connectable=0;fillColor=none;top=0;left=0;bottom=0;right=0;editable=1;overflow=hidden;" vertex="1" parent="RIR9V87sjyLqFLFkNyvp-89">
          <mxGeometry width="30" height="30" as="geometry" />
        </mxCell>
        <mxCell id="RIR9V87sjyLqFLFkNyvp-91" value="등록일자" style="shape=partialRectangle;connectable=0;fillColor=none;top=0;left=0;bottom=0;right=0;align=left;spacingLeft=6;overflow=hidden;" vertex="1" parent="RIR9V87sjyLqFLFkNyvp-89">
          <mxGeometry x="30" width="110" height="30" as="geometry" />
        </mxCell>
        <mxCell id="RIR9V87sjyLqFLFkNyvp-92" value="(+) 프로젝트ID" style="shape=partialRectangle;connectable=0;fillColor=none;top=0;left=0;bottom=0;right=0;align=left;spacingLeft=6;overflow=hidden;" vertex="1" parent="1">
          <mxGeometry x="216" y="960" width="110" height="30" as="geometry" />
        </mxCell>
        <mxCell id="RIR9V87sjyLqFLFkNyvp-93" value="댓글" style="shape=table;startSize=30;container=1;collapsible=1;childLayout=tableLayout;fixedRows=1;rowLines=0;fontStyle=1;align=center;resizeLast=1;fillColor=#fff2cc;strokeColor=#d6b656;" vertex="1" parent="1">
          <mxGeometry x="356" y="800" width="140" height="240" as="geometry" />
        </mxCell>
        <mxCell id="RIR9V87sjyLqFLFkNyvp-94" value="" style="shape=partialRectangle;collapsible=0;dropTarget=0;pointerEvents=0;fillColor=none;top=0;left=0;bottom=1;right=0;points=[[0,0.5],[1,0.5]];portConstraint=eastwest;" vertex="1" parent="RIR9V87sjyLqFLFkNyvp-93">
          <mxGeometry y="30" width="140" height="30" as="geometry" />
        </mxCell>
        <mxCell id="RIR9V87sjyLqFLFkNyvp-95" value="PK" style="shape=partialRectangle;connectable=0;fillColor=none;top=0;left=0;bottom=0;right=0;fontStyle=1;overflow=hidden;" vertex="1" parent="RIR9V87sjyLqFLFkNyvp-94">
          <mxGeometry width="30" height="30" as="geometry" />
        </mxCell>
        <mxCell id="RIR9V87sjyLqFLFkNyvp-96" value="댓글번호" style="shape=partialRectangle;connectable=0;fillColor=none;top=0;left=0;bottom=0;right=0;align=left;spacingLeft=6;fontStyle=5;overflow=hidden;" vertex="1" parent="RIR9V87sjyLqFLFkNyvp-94">
          <mxGeometry x="30" width="110" height="30" as="geometry" />
        </mxCell>
        <mxCell id="RIR9V87sjyLqFLFkNyvp-97" value="" style="shape=partialRectangle;collapsible=0;dropTarget=0;pointerEvents=0;fillColor=none;top=0;left=0;bottom=0;right=0;points=[[0,0.5],[1,0.5]];portConstraint=eastwest;" vertex="1" parent="RIR9V87sjyLqFLFkNyvp-93">
          <mxGeometry y="60" width="140" height="30" as="geometry" />
        </mxCell>
        <mxCell id="RIR9V87sjyLqFLFkNyvp-98" value="" style="shape=partialRectangle;connectable=0;fillColor=none;top=0;left=0;bottom=0;right=0;editable=1;overflow=hidden;" vertex="1" parent="RIR9V87sjyLqFLFkNyvp-97">
          <mxGeometry width="30" height="30" as="geometry" />
        </mxCell>
        <mxCell id="RIR9V87sjyLqFLFkNyvp-99" value="조문관리번호" style="shape=partialRectangle;connectable=0;fillColor=none;top=0;left=0;bottom=0;right=0;align=left;spacingLeft=6;overflow=hidden;fontStyle=1" vertex="1" parent="RIR9V87sjyLqFLFkNyvp-97">
          <mxGeometry x="30" width="110" height="30" as="geometry" />
        </mxCell>
        <mxCell id="RIR9V87sjyLqFLFkNyvp-100" value="" style="shape=partialRectangle;collapsible=0;dropTarget=0;pointerEvents=0;fillColor=none;top=0;left=0;bottom=0;right=0;points=[[0,0.5],[1,0.5]];portConstraint=eastwest;" vertex="1" parent="RIR9V87sjyLqFLFkNyvp-93">
          <mxGeometry y="90" width="140" height="30" as="geometry" />
        </mxCell>
        <mxCell id="RIR9V87sjyLqFLFkNyvp-101" value="" style="shape=partialRectangle;connectable=0;fillColor=none;top=0;left=0;bottom=0;right=0;editable=1;overflow=hidden;" vertex="1" parent="RIR9V87sjyLqFLFkNyvp-100">
          <mxGeometry width="30" height="30" as="geometry" />
        </mxCell>
        <mxCell id="RIR9V87sjyLqFLFkNyvp-102" value="사용자ID" style="shape=partialRectangle;connectable=0;fillColor=none;top=0;left=0;bottom=0;right=0;align=left;spacingLeft=6;overflow=hidden;" vertex="1" parent="RIR9V87sjyLqFLFkNyvp-100">
          <mxGeometry x="30" width="110" height="30" as="geometry" />
        </mxCell>
        <mxCell id="RIR9V87sjyLqFLFkNyvp-103" value="" style="shape=partialRectangle;collapsible=0;dropTarget=0;pointerEvents=0;fillColor=none;top=0;left=0;bottom=0;right=0;points=[[0,0.5],[1,0.5]];portConstraint=eastwest;" vertex="1" parent="RIR9V87sjyLqFLFkNyvp-93">
          <mxGeometry y="120" width="140" height="30" as="geometry" />
        </mxCell>
        <mxCell id="RIR9V87sjyLqFLFkNyvp-104" value="" style="shape=partialRectangle;connectable=0;fillColor=none;top=0;left=0;bottom=0;right=0;editable=1;overflow=hidden;" vertex="1" parent="RIR9V87sjyLqFLFkNyvp-103">
          <mxGeometry width="30" height="30" as="geometry" />
        </mxCell>
        <mxCell id="RIR9V87sjyLqFLFkNyvp-105" value="등록일자" style="shape=partialRectangle;connectable=0;fillColor=none;top=0;left=0;bottom=0;right=0;align=left;spacingLeft=6;overflow=hidden;" vertex="1" parent="RIR9V87sjyLqFLFkNyvp-103">
          <mxGeometry x="30" width="110" height="30" as="geometry" />
        </mxCell>
        <mxCell id="RIR9V87sjyLqFLFkNyvp-106" value="부모댓글번호" style="shape=partialRectangle;connectable=0;fillColor=none;top=0;left=0;bottom=0;right=0;align=left;spacingLeft=6;overflow=hidden;" vertex="1" parent="1">
          <mxGeometry x="386" y="950" width="110" height="30" as="geometry" />
        </mxCell>
        <mxCell id="RIR9V87sjyLqFLFkNyvp-107" value="댓글내용" style="shape=partialRectangle;connectable=0;fillColor=none;top=0;left=0;bottom=0;right=0;align=left;spacingLeft=6;overflow=hidden;" vertex="1" parent="1">
          <mxGeometry x="386" y="980" width="110" height="30" as="geometry" />
        </mxCell>
        <mxCell id="RIR9V87sjyLqFLFkNyvp-108" value="(+) 프로젝트ID" style="shape=partialRectangle;connectable=0;fillColor=none;top=0;left=0;bottom=0;right=0;align=left;spacingLeft=6;overflow=hidden;" vertex="1" parent="1">
          <mxGeometry x="386" y="1010" width="110" height="30" as="geometry" />
        </mxCell>
        <mxCell id="RIR9V87sjyLqFLFkNyvp-122" value="" style="shape=partialRectangle;collapsible=0;dropTarget=0;pointerEvents=0;fillColor=none;top=0;left=0;bottom=0;right=0;points=[[0,0.5],[1,0.5]];portConstraint=eastwest;" vertex="1" parent="1">
          <mxGeometry x="170" y="660" width="140" height="30" as="geometry" />
        </mxCell>
        <mxCell id="RIR9V87sjyLqFLFkNyvp-123" value="" style="shape=partialRectangle;connectable=0;fillColor=none;top=0;left=0;bottom=0;right=0;editable=1;overflow=hidden;" vertex="1" parent="RIR9V87sjyLqFLFkNyvp-122">
          <mxGeometry width="23.333333333333325" height="30" as="geometry" />
        </mxCell>
        <mxCell id="RIR9V87sjyLqFLFkNyvp-124" value="이력유무(False→True )" style="shape=partialRectangle;connectable=0;fillColor=none;top=0;left=0;bottom=0;right=0;align=left;spacingLeft=6;overflow=hidden;fontStyle=1;fontColor=#009900;" vertex="1" parent="RIR9V87sjyLqFLFkNyvp-122">
          <mxGeometry width="139.99999999999997" height="30" as="geometry" />
        </mxCell>
        <mxCell id="RIR9V87sjyLqFLFkNyvp-126" value="&lt;font color=&quot;#000000&quot; style=&quot;font-size: 16px&quot;&gt;편의성 기능&lt;/font&gt;" style="text;html=1;align=center;verticalAlign=middle;resizable=0;points=[];autosize=1;strokeColor=none;fontColor=#009900;" vertex="1" parent="1">
          <mxGeometry x="510" y="910" width="100" height="20" as="geometry" />
        </mxCell>
        <mxCell id="RIR9V87sjyLqFLFkNyvp-128" value="&lt;font style=&quot;font-size: 16px&quot; color=&quot;#000000&quot;&gt;&lt;b&gt;Select by&amp;nbsp;&lt;br&gt;&lt;/b&gt;&lt;/font&gt;&lt;span style=&quot;color: rgb(0 , 0 , 0) ; font-weight: 700 ; text-align: left&quot;&gt;&lt;font style=&quot;font-size: 12px&quot;&gt;조문관리번호&lt;/font&gt;&lt;/span&gt;&lt;font style=&quot;font-size: 16px&quot; color=&quot;#000000&quot;&gt;&lt;b&gt;&lt;br&gt;&lt;/b&gt;&lt;/font&gt;" style="text;html=1;align=center;verticalAlign=middle;resizable=0;points=[];autosize=1;strokeColor=none;fontColor=#009900;" vertex="1" parent="1">
          <mxGeometry x="350" y="730" width="90" height="40" as="geometry" />
        </mxCell>
        <mxCell id="RIR9V87sjyLqFLFkNyvp-131" value="" style="endArrow=classic;html=1;fontColor=#009900;entryX=0.467;entryY=1;entryDx=0;entryDy=0;entryPerimeter=0;" edge="1" parent="1" target="RIR9V87sjyLqFLFkNyvp-122">
          <mxGeometry width="50" height="50" relative="1" as="geometry">
            <mxPoint x="395" y="791" as="sourcePoint" />
            <mxPoint x="410" y="840" as="targetPoint" />
          </mxGeometry>
        </mxCell>
        <mxCell id="RIR9V87sjyLqFLFkNyvp-132" value="" style="endArrow=classic;html=1;fontColor=#009900;entryX=0.409;entryY=0.972;entryDx=0;entryDy=0;entryPerimeter=0;exitX=0.5;exitY=0;exitDx=0;exitDy=0;" edge="1" parent="1" source="RIR9V87sjyLqFLFkNyvp-130">
          <mxGeometry width="50" height="50" relative="1" as="geometry">
            <mxPoint x="420" y="780" as="sourcePoint" />
            <mxPoint x="603.6199999999999" y="659.1600000000001" as="targetPoint" />
          </mxGeometry>
        </mxCell>
        <mxCell id="RIR9V87sjyLqFLFkNyvp-133" value="&lt;font color=&quot;#000000&quot; style=&quot;font-size: 16px&quot;&gt;&lt;b&gt;1&lt;/b&gt;&lt;/font&gt;" style="text;html=1;align=center;verticalAlign=middle;resizable=0;points=[];autosize=1;strokeColor=none;fontColor=#009900;" vertex="1" parent="1">
          <mxGeometry x="280" y="730" width="20" height="20" as="geometry" />
        </mxCell>
        <mxCell id="RIR9V87sjyLqFLFkNyvp-135" value="&lt;font color=&quot;#000000&quot;&gt;&lt;span style=&quot;font-size: 16px&quot;&gt;&lt;b&gt;2&lt;/b&gt;&lt;/span&gt;&lt;/font&gt;" style="text;html=1;align=center;verticalAlign=middle;resizable=0;points=[];autosize=1;strokeColor=none;fontColor=#009900;" vertex="1" parent="1">
          <mxGeometry x="495" y="730" width="20" height="20" as="geometry" />
        </mxCell>
        <mxCell id="RIR9V87sjyLqFLFkNyvp-137" value="&lt;p style=&quot;font-size: 14px&quot;&gt;&lt;font style=&quot;font-size: 14px&quot; color=&quot;#000000&quot; face=&quot;Verdana&quot;&gt;&lt;b&gt;건축통 법규개정 이력관리 모델 = 스냅샷 과거이력 / 로우단위 이력&lt;/b&gt;&lt;/font&gt;&lt;/p&gt;&lt;font face=&quot;Verdana&quot;&gt;&lt;span style=&quot;font-size: 14px ; color: rgb(0 , 0 , 0)&quot;&gt;1. 마스터 테이블에는 현재 정보만 존재, 이력 테이블에는 과거 변경 정보만 보관&lt;br&gt;&lt;/span&gt;&lt;span style=&quot;color: rgb(0 , 0 , 0) ; font-size: 14px&quot;&gt;&amp;nbsp; &amp;nbsp; 단, 과거정보가 일부만 변경되어도 전체 생성 해야 함.&lt;br&gt;&lt;/span&gt;&lt;span style=&quot;color: rgb(0 , 0 , 0) ; font-size: 14px&quot;&gt;2. 이력테이블에는 마스터 테이블의 변경된 내용이 하나의 로우에 전체적으로 기록되는 형태&lt;br&gt;&lt;/span&gt;&lt;span style=&quot;color: rgb(0 , 0 , 0) ; font-size: 14px&quot;&gt;3. 두 테이블 사이에 중복되지 않는 인조 식별자 (조문관리번호)를 사용&lt;/span&gt;&lt;/font&gt;&lt;span style=&quot;color: rgb(0 , 0 , 0) ; font-size: 14px&quot;&gt;&lt;br&gt;&lt;/span&gt;" style="text;html=1;align=left;verticalAlign=middle;resizable=0;points=[];autosize=1;strokeColor=none;fontColor=#009900;" vertex="1" parent="1">
          <mxGeometry x="151" y="180" width="600" height="110" as="geometry" />
        </mxCell>
      </root>
    </mxGraphModel>
  </diagram>
</mxfile>
